<?xml version="1.0" encoding="utf-8"?>
<!-- Generator: Adobe Illustrator 24.1.2, SVG Export Plug-In . SVG Version: 6.00 Build 0)  -->
<svg version="1.1" id="Ebene_1" xmlns="http://www.w3.org/2000/svg" xmlns:xlink="http://www.w3.org/1999/xlink" x="0px" y="0px"
	 viewBox="0 0 241 241" style="enable-background:new 0 0 241 241;" xml:space="preserve">
<style type="text/css">
	.st0{display:none;fill:none;stroke:#FFFFFF;stroke-width:7;stroke-linecap:round;stroke-miterlimit:10;}
	.st1{fill:none;stroke:#f86f41;stroke-width:7;stroke-linecap:round;stroke-miterlimit:10;}
	.st2{fill:#f86f41;}
</style>


<g>
	<g>
		<g>
			<path class="st2" d="M161.37,188.44H79.63c-2.66,0-4.81-0.17-4.81-2.82V75.03c0-2.65,2.15-6.79,4.81-6.79h14.42V46.18
				c0-2.65,2.15-6.79,4.81-6.79h43.27c2.66,0,4.81,4.14,4.81,6.79v22.05h14.42c2.66,0,4.81,4.14,4.81,6.79v110.59
				C166.18,188.28,164.03,188.44,161.37,188.44z M84.44,178.83h72.12V77.85h-14.42c-2.66,0-4.81-0.17-4.81-2.82V49.01h-33.66v26.03
				c0,2.65-2.15,2.82-4.81,2.82H84.44V178.83z"/>
		</g>
	</g>
	<g>
		<g>
			<rect x="98.86" y="87.47" class="st2" width="14.42" height="14.42"/>
		</g>
	</g>
	<g>
		<g>
			<rect x="127.71" y="87.47" class="st2" width="14.42" height="14.42"/>
		</g>
	</g>
	<g>
		<g>
			<rect x="98.86" y="116.32" class="st2" width="14.42" height="14.42"/>
		</g>
	</g>
	<g>
		<g>
			<rect x="127.71" y="116.32" class="st2" width="14.42" height="14.42"/>
		</g>
	</g>
	<g>
		<g>
			<rect x="98.86" y="145.17" class="st2" width="14.42" height="14.42"/>
		</g>
	</g>
	<g>
		<g>
			<rect x="127.71" y="145.17" class="st2" width="14.42" height="14.42"/>
		</g>
	</g>
</g>
</svg>
